Coordinates
version=1
nRows=10
nColumns=33
inDegrees=yes

Units are S.I. units (second, meters, Newtons, ...)
Angles are in degrees.

endheader
time	ground_thorax_rot_x	ground_thorax_rot_y	ground_thorax_rot_z	ground_thorax_tx	ground_thorax_ty	ground_thorax_tz	clav_prot_r	clav_elev_r	scapula_abduction_r	scapula_elevation_r	scapula_upward_rot_r	scapula_winging_r	shoulder_elv_r	plane_of_elev_r	axial_rot_r	elbow_flexion_r	pro_sup_r	wrist_flex_r	wrist_dev_r	clav_prot_l	clav_elev_l	scapula_abduction_l	scapula_elevation_l	scapula_upward_rot_l	scapula_winging_l	shoulder_elv_l	plane_of_elev_l	axial_rot_l	elbow_flexion_l	pro_sup_l	wrist_flex_l	wrist_dev_l
      5.82000000	     37.92884654	     -2.24426538	      6.48478253	    -62.10990416	    804.39943208	      5.65871556	     18.72621028	     38.36545071	     45.00000000	     45.00000000	    -43.21959059	  -2592.26171784	  -2265.45499924	    143.73494801	    179.99999979	    730.94989719	     39.81002287	     20.67465012	     13.91029546	      6.25374773	    -45.00000000	    -45.00000000	     45.00000000	    -18.11531636	   4769.34512227	  -4252.10588849	     20.08354363	    -39.21239339	   1085.89681913	   -344.26631147	     13.82541805	    -19.01146752
      5.83000000	     38.04756462	     -1.55690581	      7.26143132	    -60.11854059	    802.08472714	      6.10853182	     18.07906556	     38.42193414	     45.00000000	     45.00000000	    -43.98443868	  -2592.10522497	  -2265.75399659	    143.77461284	    179.99999979	    730.53757459	     39.91998842	     20.80569043	     14.12308487	      6.73551965	    -45.00000000	    -45.00000000	     45.00000000	    -19.80661362	   4769.11642034	  -4252.31229297	     20.42578337	    -39.12199061	   1085.60989135	   -344.42966897	     13.49526558	    -18.72102289
      5.84000000	     38.20306248	     -1.74415104	      7.09534321	    -58.50633503	    800.06252052	      6.51522303	     18.43289832	     38.46443803	     45.00000000	     44.90445765	    -43.62534323	  -2591.99204406	  -2265.91501549	    143.75693829	    179.99999979	    730.27764440	     39.91253589	     20.74502282	     14.17816338	      6.61083193	    -45.00000000	    -45.00000000	     45.00000000	    -19.49405157	   4768.83264090	  -4252.56464138	     20.36308417	    -38.81964741	   1085.41350795	   -344.47754034	     13.55333271	    -18.62295136
      5.85000000	     38.31550972	     -2.24577902	      6.56811362	    -57.27543398	    798.33551005	      6.87211033	     18.30424934	     38.52698717	     45.00000000	     44.58286445	    -42.55711957	  -2592.02411246	  -2266.20365598	    143.94989607	    179.99999979	    729.96553467	     39.98505424	     20.75130357	     14.37513767	      6.33439542	    -45.00000000	    -45.00000000	     45.00000000	    -18.63247726	   4768.57491800	  -4252.66185114	     20.26706065	    -38.79175583	   1085.26722715	   -344.42912241	     13.45756340	    -18.56428020
      5.86000000	     38.42170490	     -2.51685537	      6.32744381	    -56.44867293	    796.89377754	      7.17905936	     18.30415256	     38.51678526	     45.00000000	     44.42795491	    -42.15559654	  -2591.96689913	  -2266.34180692	    144.00752797	    179.99999979	    729.68533712	     40.13913542	     20.75970663	     14.54210283	      6.15227086	    -45.00000000	    -45.00000000	     45.00000000	    -18.31213240	   4768.38031914	  -4252.71199454	     20.21966927	    -38.83833823	   1085.17314688	   -344.33239843	     13.31981740	    -18.53868838
      5.87000000	     38.45498558	     -2.71093925	      6.23147503	    -56.03541850	    795.70721782	      7.42888298	     18.26851867	     38.63086565	     45.00000000	     44.17875192	    -41.97225577	  -2591.91762985	  -2266.38572968	    144.07434769	    179.99999979	    729.46404449	     40.38900914	     20.72979309	     14.59244276	      6.01073545	    -45.00000000	    -45.00000000	     45.00000000	    -18.02929993	   4768.26489957	  -4252.72026509	     20.12762757	    -38.73311023	   1085.04607678	   -344.22469944	     13.18255294	    -18.52326552
      5.88000000	     38.52669565	     -2.18967292	      6.94248551	    -56.04096119	    794.74809549	      7.61833948	     18.62429143	     38.14324122	     45.00000000	     44.31176925	    -43.15296162	  -2591.76228714	  -2266.43355477	    144.14772244	    179.99999979	    729.37909463	     40.74564893	     20.59234077	     14.30939014	      6.01676790	    -45.00000000	    -45.00000000	     45.00000000	    -18.80213969	   4768.41777086	  -4252.83036733	     20.09488750	    -38.98949867	   1084.98566542	   -343.96373315	     13.15007015	    -18.56060864
      5.89000000	     38.62388115	     -2.83337973	      6.33724757	    -56.46127644	    793.97537611	      7.74128134	     18.32216366	     38.56594977	     45.00000000	     44.14679483	    -42.38432703	  -2591.82837043	  -2266.51959763	    144.13035821	    179.99999979	    729.14259603	     41.18860670	     20.68435809	     14.56312139	      5.93996380	    -45.00000000	    -45.00000000	     45.00000000	    -18.05468571	   4768.24092232	  -4252.72242517	     20.00177236	    -38.48818768	   1084.94938383	   -343.95318494	     12.92379591	    -18.55950169
      5.90000000	     38.63702039	     -2.22861114	      7.20674159	    -57.29402332	    793.36302425	      7.80366332	     18.66491254	     38.06631261	     45.00000000	     44.25572901	    -43.77993815	  -2591.71289289	  -2266.52584920	    144.23222081	    179.99999979	    729.19785992	     41.79367571	     20.63742183	     14.28216587	      6.06011729	    -45.00000000	    -45.00000000	     45.00000000	    -19.00961843	   4768.59581883	  -4252.85727320	     20.06040472	    -38.66091958	   1084.81700790	   -343.74462340	     12.72767321	    -18.58893408
      5.91000000	     38.81875109	     -3.06580001	      6.31601037	    -58.52741894	    792.88925868	      7.81434068	     18.14465118	     38.68531584	     45.00000000	     44.28897008	    -43.02183574	  -2591.83654666	  -2266.54673594	    144.09727687	    179.99999979	    729.10410239	     42.45524950	     20.80029682	     14.54117545	      5.89937902	    -45.00000000	    -45.00000000	     45.00000000	    -17.97152622	   4768.29935842	  -4252.74737506	     19.83404453	    -37.96092031	   1084.81702879	   -343.77820002	     12.55101669	    -18.59309150
